<svg width="89" height="16" viewBox="0 0 89 16" fill="none" xmlns="http://www.w3.org/2000/svg">
<path d="M18.6531 10.9678C18.6528 10.0484 18.9251 9.14968 19.4356 8.38514C19.9461 7.62061 20.6719 7.02464 21.5211 6.67261C22.3704 6.32059 23.3049 6.22832 24.2066 6.40747C25.1083 6.58663 25.9366 7.02916 26.5868 7.67911C27.237 8.32905 27.6798 9.1572 27.8592 10.0588C28.0387 10.9605 27.9468 11.8951 27.595 12.7444C27.2433 13.5938 26.6476 14.3198 25.8832 14.8305C25.1189 15.3413 24.2202 15.614 23.3009 15.614C22.0687 15.6131 20.8873 15.1234 20.0159 14.2523C19.1445 13.3812 18.6543 12.1999 18.6531 10.9678Z" fill="#F24D18"/>
<path fill-rule="evenodd" clip-rule="evenodd" d="M13.8664 8.1376C15.6397 7.31161 16.5253 6.18705 16.5232 4.76392C16.5232 3.56165 16.1751 2.62283 15.4726 1.95864C14.9026 1.41738 14.0612 1.04536 12.9547 0.840993C11.9387 0.688254 10.9117 0.620958 9.88439 0.639815H0.639893V15.5987H10.539C11.5766 15.6216 12.6129 15.5144 13.6237 15.2793C14.5945 15.0207 15.3204 14.6082 15.8015 14.0419C16.3508 13.3953 16.6238 12.522 16.6238 11.4283C16.6333 11.0268 16.5598 10.6277 16.4079 10.2559C16.256 9.88421 16.0289 9.54787 15.7408 9.26802C15.3082 8.82894 14.6855 8.45533 13.8664 8.1376ZM4.42391 3.31896H9.93389C10.7854 3.31896 11.4172 3.46532 11.8291 3.75804C12.2346 4.04862 12.439 4.4877 12.439 5.08005C12.439 5.72509 12.2107 6.1796 11.7541 6.44357C11.3613 6.67189 10.7593 6.78845 9.93389 6.78845H4.42391V3.31896ZM11.7205 12.6369C11.3214 12.8509 10.7418 12.9562 9.98658 12.9562H4.42391V9.42608H9.98658C11.6556 9.42608 12.4901 10.0206 12.4901 11.2095C12.4901 11.8769 12.2346 12.3543 11.7205 12.6369Z" fill="#0E001A"/>
<path fill-rule="evenodd" clip-rule="evenodd" d="M26.6587 3.27777H32.4225V15.599H36.355V3.27777H42.1652V0.681641H26.6587V3.27777Z" fill="#0E001A"/>
<path fill-rule="evenodd" clip-rule="evenodd" d="M43.9646 2.81205C42.766 4.07019 42.1667 5.93293 42.1667 8.40026C42.1667 10.7111 42.8517 12.4765 44.2216 13.6963C45.649 14.9608 47.772 15.5936 50.5906 15.5947H56.9643V13.0033H50.7375C49.2622 13.0033 48.1898 12.7293 47.5203 12.1811C46.8241 11.6159 46.4809 10.6675 46.4809 9.34547H56.9675V6.74774H46.4777C46.4777 5.59657 46.8449 4.72002 47.5857 4.12767C48.3266 3.53532 49.3708 3.23835 50.7343 3.23835H56.9611V0.640625H50.6864C47.5847 0.640625 45.344 1.36443 43.9646 2.81205Z" fill="#0E001A"/>
<path fill-rule="evenodd" clip-rule="evenodd" d="M59.6019 2.81045C58.4055 4.0686 57.8067 5.93133 57.8057 8.39866C57.8057 10.7095 58.4906 12.4749 59.8605 13.6947C61.2847 14.9592 63.4082 15.592 66.2311 15.5931H72.6033V13.0018H66.3844C65.3753 13.0018 64.6142 12.923 64.1012 12.7655C63.7742 12.6775 63.4679 12.5257 63.2 12.3188C62.932 12.1119 62.7076 11.854 62.5397 11.56C62.1554 10.8873 61.9638 9.90855 61.9649 8.62379C61.9649 6.60139 62.3715 5.15643 63.1847 4.28893C63.8755 3.56087 64.94 3.1963 66.378 3.19524H72.5969V0.640626H66.3301C63.2252 0.639562 60.9824 1.36284 59.6019 2.81045Z" fill="#0E001A"/>
<path fill-rule="evenodd" clip-rule="evenodd" d="M84.8815 0.640625V6.70623H77.9169V0.640625H74.1345V15.5995H77.9169V9.34547H84.8815V15.5995H88.6399V0.640625H84.8815Z" fill="#0E001A"/>
</svg>
